<?xml version="1.0" encoding="UTF-8"?>
<svg id="Layer_1" data-name="Layer 1" xmlns="http://www.w3.org/2000/svg" viewBox="0 0 1866.01 468.72">
  <defs>
    <style>
      .cls-1 {
        fill: #fff;
      }
    </style>
  </defs>
  <path class="cls-1" d="M1539.5,468.72c-33.3,0-60.39-27.09-60.39-60.39V124.15c0-33.3,27.09-60.39,60.39-60.39h113.89c6.15,0,12.19.92,17.99,2.73,11.88-3.03,24.23-4.57,36.74-4.57,29.85,0,57.53,7.99,82.27,23.75,24.53,15.42,43.68,36.81,56.86,63.57,12.44,25.26,18.75,52.96,18.75,82.35,0,35.1-8.01,66.67-23.79,93.84-15.9,27.6-37.01,48.68-62.72,62.63-20.24,11.07-42.31,17.65-65.71,19.6v.67c0,33.3-27.09,60.39-60.39,60.39h-113.89Z"/>
  <path class="cls-1" d="M1331.23,408.27c-39.29,0-73.5-13.32-98.91-38.51l-.18-.18c-17.65-17.65-38.7-49.27-38.7-99.65V124.15c0-33.3,27.09-60.39,60.39-60.39h107.63c7.16,0,14.11,1.23,20.73,3.65,6.62-2.43,13.58-3.65,20.73-3.65h114.08c33.3,0,60.39,27.09,60.39,60.39v221.89c0,33.3-27.09,60.39-60.39,60.39h-109.1c-9.26,0-18.38-2.12-26.62-6.17-15.36,5.32-32.17,8.02-50.04,8.02Z"/>
  <path d="M1539.5,459.28c-28.14,0-50.95-22.81-50.95-50.95V124.15c0-28.14,22.81-50.95,50.95-50.95h113.89c6.21,0,12.16,1.11,17.66,3.14,11.94-3.31,24.37-4.99,37.07-4.99,28.03,0,54,7.49,77.2,22.28,23.08,14.5,41.07,34.62,53.47,59.79,11.8,23.94,17.78,50.25,17.78,78.18,0,33.41-7.57,63.39-22.52,89.1-15.04,26.09-34.91,45.97-59.06,59.07-21.55,11.79-45.33,18.18-70.65,18.98v9.58c0,28.14-22.81,50.95-50.95,50.95h-113.89Z"/>
  <path class="cls-1" d="M1708.13,122.31c18.31,0,34.95,4.79,49.94,14.37,15.11,9.46,26.78,22.55,35.02,39.25,8.35,16.95,12.53,35.51,12.53,55.66,0,24.45-5.22,45.64-15.66,63.58-10.32,17.94-23.41,31.21-39.25,39.81-15.73,8.6-32.99,12.9-51.79,12.9-7.37,0-14.77-.77-22.21-2.3-7.43-1.54-15.2-4.02-23.31-7.46v70.22h-113.89V124.15h113.89v16.95c8.48-6.27,17.23-10.97,26.26-14.1s18.52-4.7,28.47-4.7ZM1653.4,261.82c.37.37,2.64,1.41,6.82,3.13,4.18,1.47,8.48,2.21,12.9,2.21,7,0,12.59-2.49,16.77-7.46,4.18-4.98,6.27-11.7,6.27-20.18,0-4.18-.55-7.99-1.66-11.43-1.11-3.44-2.67-6.42-4.7-8.94-2.03-2.52-4.49-4.45-7.37-5.81-2.89-1.35-6.05-2.03-9.49-2.03-7.5,0-14.01,3.5-19.53,10.5v39.99Z"/>
  <path class="cls-1" d="M1078.66,406.43c-9.19,0-18.23-2.1-26.45-6.1-8.22,4-17.26,6.1-26.45,6.1h-63.4c-24.23,0-46.03-14.4-55.54-36.68l-94.73-221.89c-7.99-18.71-6.06-40.01,5.15-56.99,11.21-16.98,30.05-27.11,50.39-27.11h116.66c7.2,0,14.22,1.25,20.92,3.73,6.69-2.48,13.71-3.73,20.92-3.73h52.89c7.48,0,14.75,1.35,21.65,4.01,6.91-2.66,14.17-4.01,21.65-4.01h118.13c20.51,0,39.44,10.27,50.62,27.46,11.18,17.2,12.9,38.66,4.58,57.41l-98.41,221.89c-9.67,21.81-31.34,35.91-55.2,35.91h-63.4Z"/>
  <path d="M1331.23,398.84c-36.75,0-68.66-12.37-92.27-35.78-.05-.05-.11-.1-.16-.16-16.39-16.39-35.93-45.83-35.93-92.98V124.15c0-28.14,22.81-50.95,50.95-50.95h107.63c7.38,0,14.4,1.57,20.73,4.4,6.33-2.83,13.35-4.4,20.73-4.4h114.08c28.14,0,50.95,22.81,50.95,50.95v221.89c0,28.14-22.81,50.95-50.95,50.95h-109.1c-9.45,0-18.29-2.57-25.88-7.05-15.39,5.91-32.41,8.89-50.79,8.89ZM1412.47,246.71h0Z"/>
  <path class="cls-1" d="M1361.46,124.15v120.9c0,19.29,6.88,28.93,20.64,28.93,4.67,0,8.75-1.04,12.26-3.13,3.5-2.09,6.36-4.98,8.57-8.66V124.15h114.08v221.89h-109.1v-38.89h-.74c-11.3,14.25-22.85,24.63-34.65,31.15-11.55,6.39-25.31,9.58-41.28,9.58-23.47,0-42.27-7-56.39-21.01-14.01-14.01-21.01-32.99-21.01-56.95V124.15h107.63Z"/>
  <path class="cls-1" d="M770.9,409.75c-32.08,0-62.1-6.97-89.22-20.71l-.27-.14c-28.39-14.57-51.09-35.58-67.48-62.46l-.25-.42c-16.09-26.88-24.25-57.59-24.25-91.29s7.89-63.39,23.46-90.21l.24-.41c15.98-27.2,38.48-48.59,66.8-63.45,26.96-14.27,57.58-21.51,90.97-21.51,25.01,0,48.74,4.23,70.51,12.56,22.31,8.54,41.99,20.8,58.49,36.45,16.73,15.88,29.91,34.93,39.15,56.63,9.2,21.6,13.87,45.13,13.87,69.93s-4.63,48.07-13.76,69.53c-9.17,21.55-22.24,40.51-38.86,56.36-16.46,15.7-36.15,28.01-58.52,36.57-21.77,8.33-45.62,12.56-70.88,12.56Z"/>
  <path d="M1078.66,396.99c-9.53,0-18.63-2.66-26.45-7.4-7.81,4.75-16.92,7.4-26.45,7.4h-63.4c-20.41,0-38.85-12.18-46.86-30.95l-94.73-221.89c-6.72-15.74-5.09-33.8,4.34-48.08,9.43-14.28,25.4-22.87,42.52-22.87h116.66c7.35,0,14.46,1.58,20.92,4.49,6.45-2.91,13.55-4.49,20.92-4.49h52.89c7.64,0,15.01,1.71,21.65,4.83,6.65-3.12,14.02-4.83,21.65-4.83h118.13c17.24,0,33.31,8.72,42.71,23.17,9.4,14.45,10.85,32.68,3.86,48.44l-98.41,221.89c-8.17,18.42-26.43,30.29-46.58,30.29h-63.4Z"/>
  <path class="cls-1" d="M984.3,124.15l21.93,47.55,19.9-47.55h52.89l20.82,47.55,22.48-47.55h118.13l-98.41,221.89h-63.4l-26.35-60.82-26.54,60.82h-63.4l-94.73-221.89h116.66Z"/>
  <path class="cls-1" d="M511.32,406.43c-7.08,0-13.98-1.21-20.55-3.59-6.57,2.38-13.46,3.59-20.55,3.59h-114.08c-33.3,0-60.39-27.09-60.39-60.39V64.81c0-33.3,27.09-60.39,60.39-60.39h114.08c32.38,0,58.89,25.61,60.33,57.64,2.3-.09,4.62-.14,6.94-.14,52.52,0,84.94,22.01,102.89,40.47,17.75,18,38.96,50.47,38.96,102.67v140.98c0,33.3-27.09,60.39-60.39,60.39h-107.63Z"/>
  <path d="M770.9,400.31c-30.58,0-59.17-6.63-84.95-19.69-.08-.04-.16-.08-.24-.12-26.81-13.76-48.25-33.6-63.72-58.98-.07-.12-.15-.24-.22-.36-15.19-25.38-22.9-54.46-22.9-86.44s7.46-60.11,22.18-85.47c.04-.08.09-.15.13-.23,15.15-25.79,36.39-45.98,63.13-60,25.62-13.56,54.76-20.43,86.59-20.43,23.86,0,46.45,4.02,67.14,11.94,21.15,8.09,39.78,19.69,55.37,34.48,15.79,14.98,28.23,32.98,36.97,53.48,8.7,20.42,13.11,42.71,13.11,66.23s-4.38,45.55-13,65.83c-8.67,20.36-21.01,38.27-36.69,53.23-15.54,14.83-34.18,26.47-55.38,34.59-20.69,7.92-43.41,11.94-67.51,11.94Z"/>
  <path class="cls-1" d="M770.9,119.55c17.69,0,34,2.86,48.93,8.57,14.93,5.71,27.77,13.67,38.52,23.87,10.75,10.2,19.14,22.36,25.16,36.49,6.02,14.13,9.03,29.55,9.03,46.26s-2.98,31.88-8.94,45.89c-5.96,14.01-14.28,26.11-24.97,36.31-10.69,10.2-23.5,18.15-38.42,23.87-14.93,5.71-31.36,8.57-49.3,8.57-22.61,0-43.25-4.73-61.92-14.19-18.43-9.46-32.93-22.85-43.49-40.18-10.44-17.44-15.66-37.53-15.66-60.26s5.1-42.32,15.3-59.89c10.32-17.57,24.63-31.15,42.94-40.73,18.31-9.7,39.25-14.56,62.84-14.56ZM770.9,257.76c7.74,0,13.88-2.27,18.43-6.82,4.54-4.54,6.82-10.69,6.82-18.43s-2.3-13.91-6.91-18.52-10.78-6.91-18.52-6.91c-3.69,0-7.03.62-10.04,1.84-3.01,1.23-5.59,2.98-7.74,5.25-2.15,2.28-3.84,4.98-5.07,8.11-1.23,3.13-1.84,6.54-1.84,10.23,0,7.5,2.3,13.58,6.91,18.24,4.61,4.67,10.6,7,17.97,7Z"/>
  <path class="cls-1" d="M188.86,411.04c-26.25,0-51.69-1.84-75.6-5.48-25.16-3.83-50.19-10.45-74.39-19.69-30.04-11.47-45.81-44.41-35.92-75.01l27.69-85.58c-12.45-20.62-19.01-44.9-19.01-70.54,0-64.86,32.48-101.16,59.72-120.19C104.65,11.3,148.88,0,206.55,0c11.41,0,23.1.55,34.75,1.64,11.15,1.05,22.79,2.56,34.58,4.5,12.05,1.99,23.41,4.31,33.77,6.9,11.15,2.79,21.68,6.07,31.29,9.75,30.68,11.76,46.24,45.28,35.4,76.3l-24.11,69.02c1.13,1.27,2.22,2.55,3.25,3.84,19.26,24.03,29.03,53.01,29.03,86.17,0,49.83-20.64,90.67-59.7,118.08-33.38,23.43-77.85,34.83-135.96,34.83Z"/>
  <path d="M511.32,396.99c-7.31,0-14.26-1.54-20.55-4.31-6.29,2.77-13.24,4.31-20.55,4.31h-114.08c-28.14,0-50.95-22.81-50.95-50.95V64.81c0-28.14,22.81-50.95,50.95-50.95h114.08c28.14,0,50.95,22.81,50.95,50.95v7.38c5.33-.56,10.77-.84,16.31-.84,49.17,0,79.39,20.4,96.12,37.61,16.61,16.85,36.29,47.15,36.29,96.09v140.98c0,28.14-22.81,50.95-50.95,50.95h-107.63Z"/>
  <path class="cls-1" d="M470.22,64.81v88.28c8.85-10.32,18.77-18.03,29.76-23.13,10.99-5.1,23.5-7.65,37.5-7.65,25.43,0,45.34,7.44,59.71,22.3,14.5,14.62,21.75,34.77,21.75,60.45v140.98h-107.63v-129.37c0-8.48-1.84-15.08-5.53-19.81-3.69-4.73-9.03-7.1-16.03-7.1-6.51,0-13.02,2.89-19.53,8.66v147.62h-114.08V64.81h114.08Z"/>
  <path d="M188.86,401.6c-25.79,0-50.75-1.81-74.19-5.37-24.5-3.72-48.87-10.18-72.44-19.18-25.33-9.67-38.65-37.49-30.3-63.28l29.04-89.78c-13.06-19.94-19.91-43.62-19.91-69.25,0-60.8,30.28-94.71,55.69-112.45C108.42,20.18,150.87,9.44,206.55,9.44c11.12,0,22.51.54,33.87,1.6,10.95,1.03,22.36,2.51,33.93,4.42,11.8,1.95,22.9,4.21,33.02,6.74,10.78,2.7,20.95,5.86,30.2,9.41,25.72,9.86,38.95,38.37,29.87,64.38l-25.99,74.42c2.42,2.45,4.65,4.94,6.7,7.48,17.9,22.33,26.94,49.29,26.94,80.25,0,46.63-19.25,84.79-55.68,110.35-31.74,22.28-74.44,33.11-130.54,33.11Z"/>
  <path class="cls-1" d="M206.55,60.39c9.58,0,19.29.46,29.12,1.38,9.83.92,19.96,2.24,30.41,3.96,10.44,1.72,20.09,3.69,28.93,5.9s16.95,4.73,24.33,7.56l-30.96,88.64c-9.71-13.02-20.52-23.13-32.44-30.32-11.92-7.19-24.39-10.78-37.41-10.78-7.74,0-13.33,1.57-16.77,4.7-3.44,3.13-5.16,7.03-5.16,11.7,0,4.42,3.35,8.66,10.04,12.72,6.7,4.05,17.05,8.73,31.05,14.01,36.49,13.39,60.08,26.72,70.77,39.99,10.44,13.02,15.66,29.12,15.66,48.28,0,29.86-11.33,52.74-34,68.65-22.67,15.91-56.42,23.87-101.27,23.87-23.34,0-45.52-1.6-66.53-4.79s-41.65-8.66-61.92-16.4l30.41-93.99c8.6,13.52,19.47,24.39,32.62,32.62,13.02,8.23,25.62,12.35,37.78,12.35,6.02,0,11.03-1.5,15.02-4.52,3.99-3.01,5.99-6.79,5.99-11.33,0-5.41-2.8-10.1-8.39-14.1-5.59-3.99-14.28-8.26-26.08-12.81-29-10.93-48.9-22.79-59.71-35.57-10.69-12.9-16.03-28.69-16.03-47.36,0-31.33,11.3-54.89,33.91-70.68,22.61-15.79,56.15-23.68,100.62-23.68Z"/>
</svg>