<?xml version="1.0" encoding="UTF-8"?>
<svg id="Layer_1" data-name="Layer 1" xmlns="http://www.w3.org/2000/svg" viewBox="0 0 1872.91 456.13">
  <defs>
    <style>
      .cls-1 {
        fill: #fff;
      }
    </style>
  </defs>
  <path d="M1551.42,456.13c-28.53,0-51.66-23.13-51.66-51.66V116.32c0-28.53,23.13-51.66,51.66-51.66h115.48c6.3,0,12.33,1.13,17.91,3.19,12.11-3.36,24.71-5.06,37.59-5.06,28.42,0,54.75,7.6,78.27,22.59,23.4,14.71,41.64,35.1,54.21,60.62,11.96,24.28,18.03,50.95,18.03,79.27,0,33.87-7.68,64.27-22.83,90.35-15.25,26.46-35.39,46.61-59.88,59.9-21.85,11.95-45.96,18.44-71.64,19.25v9.71c0,28.53-23.13,51.66-51.66,51.66h-115.48Z"/>
  <path class="cls-1" d="M1722.4,114.45c18.56,0,35.44,4.86,50.64,14.58,15.32,9.59,27.16,22.86,35.5,39.8,8.47,17.19,12.71,36,12.71,56.43,0,24.79-5.3,46.28-15.88,64.47-10.46,18.19-23.73,31.64-39.8,40.36-15.95,8.72-33.45,13.08-52.51,13.08-7.47,0-14.98-.78-22.52-2.34-7.54-1.56-15.42-4.08-23.64-7.57v71.2h-115.48V116.32h115.48v17.19c8.6-6.35,17.47-11.12,26.63-14.3s18.78-4.77,28.87-4.77ZM1666.9,255.91c.37.37,2.68,1.43,6.91,3.18,4.23,1.49,8.6,2.24,13.08,2.24,7.1,0,12.77-2.52,17-7.57,4.23-5.05,6.35-11.87,6.35-20.46,0-4.23-.56-8.1-1.68-11.59-1.12-3.49-2.71-6.51-4.77-9.06-2.06-2.55-4.55-4.51-7.47-5.89-2.93-1.37-6.14-2.06-9.62-2.06-7.6,0-14.2,3.55-19.81,10.65v40.55Z"/>
  <path d="M1340.24,394.84c-37.26,0-69.62-12.54-93.55-36.28-.05-.05-.11-.1-.16-.16-16.62-16.62-36.43-46.47-36.43-94.27V116.32c0-28.53,23.13-51.66,51.66-51.66h109.13c7.49,0,14.6,1.59,21.02,4.46,6.42-2.87,13.53-4.46,21.02-4.46h115.67c28.53,0,51.66,23.13,51.66,51.66v224.98c0,28.53-23.13,51.66-51.66,51.66h-110.62c-9.58,0-18.55-2.61-26.24-7.15-15.6,5.99-32.86,9.02-51.49,9.02ZM1422.61,240.59h0Z"/>
  <path class="cls-1" d="M1370.88,116.32v122.58c0,19.56,6.98,29.34,20.93,29.34,4.73,0,8.88-1.06,12.43-3.18,3.55-2.12,6.45-5.05,8.69-8.78V116.32h115.67v224.98h-110.62v-39.43h-.75c-11.46,14.45-23.17,24.98-35.13,31.58-11.71,6.48-25.66,9.72-41.86,9.72-23.8,0-42.86-7.1-57.18-21.3-14.2-14.2-21.3-33.45-21.3-57.74V116.32h109.13Z"/>
  <path d="M1084.14,392.97c-9.66,0-18.89-2.69-26.81-7.5-7.92,4.81-17.15,7.5-26.81,7.5h-64.28c-20.69,0-39.39-12.35-47.52-31.38l-96.05-224.98c-6.81-15.96-5.16-34.28,4.4-48.76,9.56-14.48,25.76-23.19,43.11-23.19h118.28c7.46,0,14.66,1.61,21.21,4.55,6.54-2.95,13.74-4.55,21.21-4.55h53.63c7.75,0,15.22,1.73,21.96,4.9,6.75-3.17,14.22-4.9,21.96-4.9h119.78c17.48,0,33.78,8.84,43.31,23.5,9.53,14.65,11.01,33.13,3.92,49.12l-99.79,224.98c-8.28,18.68-26.8,30.72-47.23,30.72h-64.28Z"/>
  <path class="cls-1" d="M988.46,116.32l22.24,48.21,20.18-48.21h53.63l21.12,48.21,22.8-48.21h119.78l-99.79,224.98h-64.28l-26.72-61.67-26.91,61.67h-64.28l-96.05-224.98h118.28Z"/>
  <path d="M772.08,396.33c-31.01,0-59.99-6.72-86.14-19.97-.08-.04-.16-.08-.24-.12-27.18-13.96-48.92-34.07-64.61-59.8-.07-.12-.15-.24-.22-.36-15.41-25.74-23.22-55.22-23.22-87.64s7.57-60.95,22.49-86.67c.04-.08.09-.16.14-.23,15.36-26.15,36.9-46.62,64.01-60.84,25.98-13.75,55.52-20.72,87.8-20.72,24.19,0,47.1,4.07,68.08,12.1,21.44,8.21,40.33,19.97,56.14,34.96,16.01,15.19,28.62,33.44,37.48,54.23,8.82,20.71,13.29,43.3,13.29,67.16s-4.44,46.19-13.19,66.75c-8.79,20.65-21.3,38.8-37.2,53.97-15.76,15.04-34.66,26.84-56.16,35.07-20.98,8.03-44.01,12.1-68.45,12.1Z"/>
  <path class="cls-1" d="M772.08,111.65c17.94,0,34.48,2.9,49.61,8.69,15.14,5.79,28.15,13.86,39.05,24.2,10.9,10.34,19.4,22.68,25.51,37,6.1,14.33,9.16,29.96,9.16,46.9s-3.02,32.33-9.06,46.53c-6.04,14.2-14.48,26.47-25.32,36.81-10.84,10.34-23.83,18.41-38.96,24.2-15.14,5.79-31.8,8.69-49.99,8.69-22.92,0-43.85-4.79-62.79-14.39-18.69-9.59-33.39-23.17-44.1-40.74-10.59-17.69-15.88-38.06-15.88-61.1s5.17-42.91,15.51-60.73c10.46-17.81,24.98-31.58,43.54-41.3,18.56-9.84,39.8-14.76,63.72-14.76ZM772.08,251.8c7.85,0,14.08-2.3,18.69-6.91,4.61-4.61,6.91-10.84,6.91-18.69s-2.34-14.11-7.01-18.78-10.93-7.01-18.78-7.01c-3.74,0-7.13.63-10.18,1.87-3.05,1.25-5.67,3.02-7.85,5.33-2.18,2.31-3.89,5.05-5.14,8.22-1.25,3.18-1.87,6.63-1.87,10.37,0,7.6,2.34,13.77,7.01,18.5,4.67,4.74,10.74,7.1,18.22,7.1Z"/>
  <path d="M508.88,392.97c-7.41,0-14.46-1.56-20.84-4.37-6.37,2.81-13.42,4.37-20.84,4.37h-115.67c-28.53,0-51.66-23.13-51.66-51.66V56.15c0-28.53,23.13-51.66,51.66-51.66h115.67c28.53,0,51.66,23.13,51.66,51.66v7.49c5.4-.57,10.92-.85,16.54-.85,49.86,0,80.5,20.68,97.46,38.13,16.84,17.08,36.79,47.8,36.79,97.43v142.95c0,28.53-23.13,51.66-51.66,51.66h-109.13Z"/>
  <path class="cls-1" d="M467.21,56.15v89.51c8.97-10.46,19.03-18.28,30.18-23.45,11.15-5.17,23.83-7.75,38.03-7.75,25.79,0,45.97,7.54,60.54,22.61,14.7,14.83,22.05,35.26,22.05,61.29v142.95h-109.13v-131.18c0-8.6-1.87-15.29-5.61-20.09-3.74-4.79-9.16-7.19-16.26-7.19-6.6,0-13.21,2.93-19.81,8.78v149.68h-115.67V56.15h115.67Z"/>
  <path d="M181.92,397.64c-26.15,0-51.45-1.83-75.22-5.45-24.84-3.78-49.55-10.32-73.45-19.44-25.68-9.81-39.19-38.01-30.73-64.17l29.45-91.03c-13.25-20.22-20.19-44.23-20.19-70.22,0-61.65,30.71-96.03,56.47-114.02C100.36,10.9,143.41,0,199.86,0c11.27,0,22.83.55,34.35,1.63,11.1,1.04,22.68,2.55,34.4,4.48,11.96,1.97,23.22,4.27,33.48,6.84,10.94,2.73,21.24,5.94,30.62,9.54,26.08,10,39.5,38.91,30.29,65.28l-26.36,75.45c2.45,2.48,4.71,5.01,6.79,7.59,18.15,22.64,27.31,49.98,27.31,81.37,0,47.28-19.52,85.97-56.46,111.89-32.18,22.59-75.48,33.58-132.36,33.58Z"/>
  <path class="cls-1" d="M199.86,51.66c9.72,0,19.56.47,29.52,1.4,9.97.93,20.24,2.27,30.83,4.02,10.59,1.75,20.37,3.74,29.34,5.98s17.19,4.8,24.67,7.66l-31.39,89.88c-9.84-13.2-20.81-23.45-32.89-30.74-12.08-7.29-24.73-10.93-37.93-10.93-7.85,0-13.52,1.59-17,4.77-3.49,3.18-5.23,7.13-5.23,11.87,0,4.48,3.39,8.78,10.18,12.89,6.79,4.11,17.28,8.85,31.49,14.2,37,13.58,60.92,27.1,71.76,40.55,10.59,13.21,15.88,29.52,15.88,48.96,0,30.27-11.49,53.47-34.48,69.61-22.98,16.13-57.21,24.2-102.68,24.2-23.67,0-46.16-1.62-67.46-4.86s-42.23-8.78-62.79-16.63l30.83-95.3c8.72,13.71,19.74,24.73,33.07,33.07,13.2,8.35,25.97,12.52,38.31,12.52,6.1,0,11.18-1.52,15.23-4.58,4.05-3.05,6.07-6.88,6.07-11.49,0-5.48-2.83-10.25-8.5-14.3-5.67-4.05-14.48-8.38-26.44-12.99-29.4-11.09-49.58-23.11-60.54-36.06-10.84-13.08-16.26-29.09-16.26-48.02,0-31.77,11.46-55.65,34.38-71.66,22.92-16.01,56.93-24.01,102.03-24.01Z"/>
</svg>