<?xml version="1.0" encoding="UTF-8"?>
<svg xmlns="http://www.w3.org/2000/svg" viewBox="-11 -5 389 408">
  <defs>
    <style>
      .cls-1 {
        fill: #fff;
      }
    </style>
  </defs>
  <path d="M181.92,397.64c-26.15,0-51.45-1.83-75.22-5.45-24.84-3.78-49.55-10.32-73.45-19.44-25.68-9.81-39.19-38.01-30.73-64.17l29.45-91.03c-13.25-20.22-20.19-44.23-20.19-70.22,0-61.65,30.71-96.03,56.47-114.02C100.36,10.9,143.41,0,199.86,0c11.27,0,22.83.55,34.35,1.63,11.1,1.04,22.68,2.55,34.4,4.48,11.96,1.97,23.22,4.27,33.48,6.84,10.94,2.73,21.24,5.94,30.62,9.54,26.08,10,39.5,38.91,30.29,65.28l-26.36,75.45c2.45,2.48,4.71,5.01,6.79,7.59,18.15,22.64,27.31,49.98,27.31,81.37,0,47.28-19.52,85.97-56.46,111.89-32.18,22.59-75.48,33.58-132.36,33.58Z"/>
  <path class="cls-1" d="M199.86,51.66c9.72,0,19.56.47,29.52,1.4,9.97.93,20.24,2.27,30.83,4.02,10.59,1.75,20.37,3.74,29.34,5.98s17.19,4.8,24.67,7.66l-31.39,89.88c-9.84-13.2-20.81-23.45-32.89-30.74-12.08-7.29-24.73-10.93-37.93-10.93-7.85,0-13.52,1.59-17,4.77-3.49,3.18-5.23,7.13-5.23,11.87,0,4.48,3.39,8.78,10.18,12.89,6.79,4.11,17.28,8.85,31.49,14.2,37,13.58,60.92,27.1,71.76,40.55,10.59,13.21,15.88,29.52,15.88,48.96,0,30.27-11.49,53.47-34.48,69.61-22.98,16.13-57.21,24.2-102.68,24.2-23.67,0-46.16-1.62-67.46-4.86s-42.23-8.78-62.79-16.63l30.83-95.3c8.72,13.71,19.74,24.73,33.07,33.07,13.2,8.35,25.97,12.52,38.31,12.52,6.1,0,11.18-1.52,15.23-4.58,4.05-3.05,6.07-6.88,6.07-11.49,0-5.48-2.83-10.25-8.5-14.3-5.67-4.05-14.48-8.38-26.44-12.99-29.4-11.09-49.58-23.11-60.54-36.06-10.84-13.08-16.26-29.09-16.26-48.02,0-31.77,11.46-55.65,34.38-71.66,22.92-16.01,56.93-24.01,102.03-24.01Z"/>
</svg>
