<?xml version="1.0" encoding="UTF-8"?>
<svg xmlns="http://www.w3.org/2000/svg" viewBox="-12 -5 405 421">
  <defs>
    <style>
      .cls-1 {
        fill: #fff;
      }
    </style>
  </defs>
  <path class="cls-1" d="M188.86,411.04c-26.25,0-51.69-1.84-75.6-5.48-25.16-3.83-50.19-10.45-74.39-19.69-30.04-11.47-45.81-44.41-35.92-75.01l27.69-85.58c-12.45-20.62-19.01-44.9-19.01-70.54,0-64.86,32.48-101.16,59.72-120.19C104.65,11.3,148.88,0,206.55,0c11.41,0,23.1.55,34.75,1.64,11.15,1.05,22.79,2.56,34.58,4.5,12.05,1.99,23.41,4.31,33.77,6.9,11.15,2.79,21.68,6.07,31.29,9.75,30.68,11.76,46.24,45.28,35.4,76.3l-24.11,69.02c1.13,1.27,2.22,2.55,3.25,3.84,19.26,24.03,29.03,53.01,29.03,86.17,0,49.83-20.64,90.67-59.7,118.08-33.38,23.43-77.85,34.83-135.96,34.83Z"/>
  <path d="M188.86,401.6c-25.79,0-50.75-1.81-74.19-5.37-24.5-3.72-48.87-10.18-72.44-19.18-25.33-9.67-38.65-37.49-30.3-63.28l29.04-89.78c-13.06-19.94-19.91-43.62-19.91-69.25,0-60.8,30.28-94.71,55.69-112.45C108.42,20.18,150.87,9.44,206.55,9.44c11.12,0,22.51.54,33.87,1.6,10.95,1.03,22.36,2.51,33.93,4.42,11.8,1.95,22.9,4.21,33.02,6.74,10.78,2.7,20.95,5.86,30.2,9.41,25.72,9.86,38.95,38.37,29.87,64.38l-25.99,74.42c2.42,2.45,4.65,4.94,6.7,7.48,17.9,22.33,26.94,49.29,26.94,80.25,0,46.63-19.25,84.79-55.68,110.35-31.74,22.28-74.44,33.11-130.54,33.11Z"/>
  <path class="cls-1" d="M206.55,60.39c9.58,0,19.29.46,29.12,1.38,9.83.92,19.96,2.24,30.41,3.96,10.44,1.72,20.09,3.69,28.93,5.9s16.95,4.73,24.33,7.56l-30.96,88.64c-9.71-13.02-20.52-23.13-32.44-30.32-11.92-7.19-24.39-10.78-37.41-10.78-7.74,0-13.33,1.57-16.77,4.7-3.44,3.13-5.16,7.03-5.16,11.7,0,4.42,3.35,8.66,10.04,12.72,6.7,4.05,17.05,8.73,31.05,14.01,36.49,13.39,60.08,26.72,70.77,39.99,10.44,13.02,15.66,29.12,15.66,48.28,0,29.86-11.33,52.74-34,68.65-22.67,15.91-56.42,23.87-101.27,23.87-23.34,0-45.52-1.6-66.53-4.79s-41.65-8.66-61.92-16.4l30.41-93.99c8.6,13.52,19.47,24.39,32.62,32.62,13.02,8.23,25.62,12.35,37.78,12.35,6.02,0,11.03-1.5,15.02-4.52,3.99-3.01,5.99-6.79,5.99-11.33,0-5.41-2.8-10.1-8.39-14.1-5.59-3.99-14.28-8.26-26.08-12.81-29-10.93-48.9-22.79-59.71-35.57-10.69-12.9-16.03-28.69-16.03-47.36,0-31.33,11.3-54.89,33.91-70.68,22.61-15.79,56.15-23.68,100.62-23.68Z"/>
</svg>
